<?xml version="1.0" encoding="UTF-8" standalone="no"?>
<svg
   xmlns:dc="http://purl.org/dc/elements/1.1/"
   xmlns:cc="http://creativecommons.org/ns#"
   xmlns:rdf="http://www.w3.org/1999/02/22-rdf-syntax-ns#"
   xmlns:svg="http://www.w3.org/2000/svg"
   xmlns="http://www.w3.org/2000/svg"
   xmlns:sodipodi="http://sodipodi.sourceforge.net/DTD/sodipodi-0.dtd"
   xmlns:inkscape="http://www.inkscape.org/namespaces/inkscape"
   viewBox="0 0 56.967148 56.92509"
   version="1.1"
   id="svg4"
   sodipodi:docname="seo.svg"
   width="56.967148"
   height="56.925091"
   inkscape:version="0.92.5 (2060ec1f9f, 2020-04-08)">
  <metadata
     id="metadata10">
    <rdf:RDF>
      <cc:Work
         rdf:about="">
        <dc:format>image/svg+xml</dc:format>
        <dc:type
           rdf:resource="http://purl.org/dc/dcmitype/StillImage" />
        <dc:title></dc:title>
      </cc:Work>
    </rdf:RDF>
  </metadata>
  <defs
     id="defs8" />
  <sodipodi:namedview
     pagecolor="#ffffff"
     bordercolor="#666666"
     borderopacity="1"
     objecttolerance="10"
     gridtolerance="10"
     guidetolerance="10"
     inkscape:pageopacity="0"
     inkscape:pageshadow="2"
     inkscape:window-width="2560"
     inkscape:window-height="1391"
     id="namedview6"
     showgrid="false"
     fit-margin-top="0"
     fit-margin-left="0"
     fit-margin-right="0"
     fit-margin-bottom="0"
     inkscape:zoom="7.375"
     inkscape:cx="-35.728814"
     inkscape:cy="44.382718"
     inkscape:window-x="0"
     inkscape:window-y="0"
     inkscape:window-maximized="1"
     inkscape:current-layer="svg4" />
  <path
     style="stroke:#ffffff;stroke-width:4;stroke-miterlimit:4;stroke-dasharray:none;stroke-opacity:1;fill:#000000;fill-opacity:1"
     d="m 21.203066,0 v 6.4438422 c 7.127418,0.6380284 11.882427,6.5146638 11.882427,13.2768158 0,6.216626 -4.254288,11.428996 -10.01552,12.887685 l -1.959556,6.147361 -0.273321,0.819956 c 3.505599,-0.227697 7.011643,-1.477329 10.061846,-3.571675 l 1.209087,1.820582 c 7.983349,7.791876 11.419937,10.583303 19.924491,19.011882 0.594619,0.406068 2.163241,0.09044 3.553146,-1.297107 1.385162,-1.392278 1.757203,-3.011375 1.292475,-3.534618 C 49.847423,44.738538 42.319932,37.734603 37.843096,32.103397 l -1.797419,-1.181294 c 2.186848,-3.18777 3.576308,-7.0341 3.576308,-11.201445 C 39.621985,9.2228382 31.515882,0.63802839 21.203066,0 Z"
     id="path818"
     inkscape:connector-curvature="0"
     sodipodi:nodetypes="ccsccccccccccsc" />
  <path
     style="stroke:#ffffff;stroke-width:4;stroke-miterlimit:4;stroke-dasharray:none;stroke-opacity:1;fill:#000000;fill-opacity:1"
     d="M 17.010631,0.16213748 C 7.4022559,1.5046071 0,9.7707361 0,19.720658 0,29.739364 7.1283812,38.113748 16.760474,39.413523 V 32.789012 C 10.681417,31.584111 6.4438422,26.186329 6.4438422,19.720658 c 0,-5.6711 3.5283904,-10.5006364 8.5377428,-12.4336964 l 1.866909,-6.53185998 z"
     id="path816" />
  <path
     style="stroke:none;stroke-width:0.63796204;stroke-miterlimit:4;stroke-dasharray:none;stroke-opacity:1;fill:#0066ff;fill-opacity:1"
     d="M 18.899873,-0.49581383 10.997004,27.096424 18.916144,23.603326 V 42.48451 l 9.7579,-30.342244 -9.774171,4.078902 z"
     id="path814"
     inkscape:connector-curvature="0" />
</svg>
