<?xml version="1.0" encoding="UTF-8" standalone="no"?>
<svg
   xmlns:dc="http://purl.org/dc/elements/1.1/"
   xmlns:cc="http://creativecommons.org/ns#"
   xmlns:rdf="http://www.w3.org/1999/02/22-rdf-syntax-ns#"
   xmlns:svg="http://www.w3.org/2000/svg"
   xmlns="http://www.w3.org/2000/svg"
   xmlns:sodipodi="http://sodipodi.sourceforge.net/DTD/sodipodi-0.dtd"
   xmlns:inkscape="http://www.inkscape.org/namespaces/inkscape"
   viewBox="0 0 32 32"
   version="1.1"
   id="svg4"
   sodipodi:docname="hide-ecommerce.svg"
   inkscape:version="0.92.5 (2060ec1f9f, 2020-04-08)">
  <metadata
     id="metadata10">
    <rdf:RDF>
      <cc:Work
         rdf:about="">
        <dc:format>image/svg+xml</dc:format>
        <dc:type
           rdf:resource="http://purl.org/dc/dcmitype/StillImage" />
        <dc:title></dc:title>
      </cc:Work>
    </rdf:RDF>
  </metadata>
  <defs
     id="defs8" />
  <sodipodi:namedview
     pagecolor="#ffffff"
     bordercolor="#666666"
     borderopacity="1"
     objecttolerance="10"
     gridtolerance="10"
     guidetolerance="10"
     inkscape:pageopacity="0"
     inkscape:pageshadow="2"
     inkscape:window-width="2560"
     inkscape:window-height="1391"
     id="namedview6"
     showgrid="false"
     inkscape:zoom="20.85965"
     inkscape:cx="17.910629"
     inkscape:cy="21.666149"
     inkscape:window-x="0"
     inkscape:window-y="0"
     inkscape:window-maximized="1"
     inkscape:current-layer="svg4" />
  <path
     d="m 1.2176265,5.5288825 c -0.7067266,0 -1.28313499,0.5764087 -1.28313499,1.2831352 0,0.7067265 0.57640839,1.2831353 1.28313499,1.2831353 H 4.064582 l 3.3682296,13.47292 c 0.2856992,1.142792 1.3081977,1.924703 2.4860749,1.924703 H 25.917978 c 1.157829,0 2.140229,-0.766873 2.445976,-1.884606 L 31.692086,9.3782884 H 29.005521 L 25.917978,20.926505 H 9.9188865 L 6.5506572,7.4535853 C 6.2649589,6.310793 5.2424604,5.5288825 4.064582,5.5288825 Z M 24.314058,23.492776 c -2.110155,0 -3.849405,1.73925 -3.849405,3.849405 0,2.110156 1.73925,3.849406 3.849405,3.849406 2.110156,0 3.849407,-1.73925 3.849407,-3.849406 0,-2.110155 -1.739251,-3.849405 -3.849407,-3.849405 z m -11.548215,0 c -2.110157,0 -3.849405,1.73925 -3.849405,3.849405 0,2.110156 1.739248,3.849406 3.849405,3.849406 2.110154,0 3.849405,-1.73925 3.849405,-3.849406 0,-2.110155 -1.739251,-3.849405 -3.849405,-3.849405 z m 0,2.56627 c 0.721762,0 1.283134,0.561372 1.283134,1.283135 0,0.721765 -0.561372,1.283136 -1.283134,1.283136 -0.721765,0 -1.283137,-0.561371 -1.283137,-1.283136 0,-0.721763 0.561372,-1.283135 1.283137,-1.283135 z m 11.548215,0 c 0.721765,0 1.283136,0.561372 1.283136,1.283135 0,0.721765 -0.561371,1.283136 -1.283136,1.283136 -0.721763,0 -1.283134,-0.561371 -1.283134,-1.283136 0,-0.721763 0.561371,-1.283135 1.283134,-1.283135 z"
     id="path2"
     inkscape:connector-curvature="0"
     sodipodi:nodetypes="ssscssscccccsssssssssssssssssssssss"
     style="stroke:#ffffff;stroke-width:0.9;stroke-miterlimit:4;stroke-dasharray:none;stroke-opacity:1" />
  <path
     id="path817"
     d="m 9.3180456,0.85684449 -0.9479319,0.94793031 4.0802233,4.0596186 8.551988,8.5519856 4.512975,4.533582 0.947929,-0.947929 -4.183258,-4.183259 c 2.702116,-1.375532 4.71647,-3.315183 4.842691,-3.441404 L 27.555413,9.9446188 27.143266,9.4706533 c -0.17001,-0.1983454 -4.190986,-4.842691 -9.726593,-4.842691 -1.313708,0 -2.537261,0.2756204 -3.647473,0.6800373 z M 17.416673,5.9468209 c 1.427048,0 2.743332,0.3657787 3.915368,0.8861105 0.445628,0.7264037 0.700642,1.5532698 0.700642,2.4110421 0,1.1977925 -0.461085,2.2873985 -1.215823,3.1116875 l -1.875255,-1.875257 c 0.273046,-0.337441 0.453357,-0.7676168 0.453357,-1.2364305 0,-1.0896058 -0.888685,-1.9782905 -1.978289,-1.9782905 -0.468815,0 -0.89899,0.180314 -1.236431,0.4533565 L 14.820166,6.3589673 C 15.636728,6.1142556 16.499653,5.9468209 17.416673,5.9468209 Z M 11.234514,6.5238222 C 9.0990936,7.8349563 7.7853845,9.3573144 7.6900764,9.4706533 L 7.2779323,9.9446188 7.7106827,10.377369 c 0.1880433,0.18804 4.4949433,4.394485 9.0877743,4.760262 h 0.04121 c 0.190617,0.01539 0.386384,0.04121 0.577,0.04121 0.190619,0 0.386386,-0.02576 0.577004,-0.04121 h 0.0412 c 0.525485,-0.0412 1.053545,-0.136528 1.566147,-0.267893 L 18.467623,13.73634 c -0.164856,0.03864 -0.342594,0.0644 -0.515179,0.08244 l -0.08243,0.0206 c -0.309106,0.02576 -0.600182,0.02576 -0.906714,0 l -0.0618,-0.0206 c -2.333763,-0.26274 -4.100832,-2.223001 -4.100832,-4.5747963 0,-0.3528987 0.0438,-0.692915 0.123653,-1.0303606 z m 0.43275,1.2982545 C 11.551347,8.2857393 11.4818,8.7571304 11.4818,9.2439735 c 0,1.0638475 0.288501,2.0581435 0.783076,2.9262205 C 10.866161,11.33818 9.7147315,10.397976 9.1119738,9.8621898 9.6039699,9.3727687 10.497805,8.5768155 11.667264,7.8220767 Z m 11.498816,0 c 1.169458,0.7547388 2.042688,1.5712999 2.534685,2.0607191 -0.60276,0.5357892 -1.733581,1.4553842 -3.132295,2.2873982 0.494573,-0.868077 0.783074,-1.862373 0.783074,-2.9262205 0,-0.4842668 -0.07213,-0.9582342 -0.185464,-1.4218968 z m -5.749407,0.7624665 c 0.363202,0 0.659431,0.2962287 0.659431,0.6594303 0,0.1081581 -0.03609,0.1983442 -0.08244,0.2885011 L 17.128166,8.6669724 c 0.09016,-0.046361 0.180314,-0.082451 0.288502,-0.082451 z"
     inkscape:connector-curvature="0"
     style="stroke-width:0.65943027" />
</svg>
