<svg xmlns="http://www.w3.org/2000/svg" height="608.722" width="1016.998"><rect width="954.576" height="557.559" x="30.974" y="30.126" ry="1.069" stroke="#fff" stroke-width="2"/><path d="M944.246-5.67H67.938C27.22-5.67-5.908 27.455-5.908 68.174v492.308c0 40.721 33.127 73.846 73.846 73.846h876.308c40.721 0 73.846-33.125 73.846-73.846V68.175c0-40.719-33.125-73.846-73.846-73.846zM570.092 506.203l-128 .125v-192l-96 123.077-96-123.077v192h-128v-384h128l96 128 96-128 128-.125zm191.091 32L602.093 314.33h96v-192h128v192h96z" fill="#fff"/><rect width="987.439" height="579.163" x="14.779" y="14.779" ry="1.081" fill="none" stroke="#000" stroke-width="29.559"/></svg>