<?xml version="1.0" encoding="UTF-8" standalone="no"?>
<svg
   xmlns:dc="http://purl.org/dc/elements/1.1/"
   xmlns:cc="http://creativecommons.org/ns#"
   xmlns:rdf="http://www.w3.org/1999/02/22-rdf-syntax-ns#"
   xmlns:svg="http://www.w3.org/2000/svg"
   xmlns="http://www.w3.org/2000/svg"
   xmlns:sodipodi="http://sodipodi.sourceforge.net/DTD/sodipodi-0.dtd"
   xmlns:inkscape="http://www.inkscape.org/namespaces/inkscape"
   height="39.931313"
   version="1.1"
   viewBox="0 0 28.099811 39.931312"
   width="28.099812"
   id="svg11"
   sodipodi:docname="minify2.svg"
   inkscape:version="0.92.5 (2060ec1f9f, 2020-04-08)">
  <metadata
     id="metadata15">
    <rdf:RDF>
      <cc:Work
         rdf:about="">
        <dc:format>image/svg+xml</dc:format>
        <dc:type
           rdf:resource="http://purl.org/dc/dcmitype/StillImage" />
        <dc:title></dc:title>
      </cc:Work>
    </rdf:RDF>
  </metadata>
  <sodipodi:namedview
     pagecolor="#ffffff"
     bordercolor="#666666"
     borderopacity="1"
     objecttolerance="10"
     gridtolerance="10"
     guidetolerance="10"
     inkscape:pageopacity="0"
     inkscape:pageshadow="2"
     inkscape:window-width="2560"
     inkscape:window-height="1391"
     id="namedview13"
     showgrid="false"
     fit-margin-top="0"
     fit-margin-left="0"
     fit-margin-right="0"
     fit-margin-bottom="0"
     inkscape:zoom="7.375"
     inkscape:cx="-14.457627"
     inkscape:cy="23.787692"
     inkscape:window-x="0"
     inkscape:window-y="0"
     inkscape:window-maximized="1"
     inkscape:current-layer="svg11" />
  <desc
     id="desc4" />
  <defs
     id="defs6" />
  <g
     id="Page-1"
     style="fill:#000000;fill-rule:evenodd;stroke:none;stroke-width:1;fill-opacity:1"
     transform="matrix(1.4789375,0,0,1.4789375,-10.352562,-4.4368125)">
    <g
       id="icon-109-document-zip"
       style="fill:#000000;fill-opacity:1">
      <path
         d="M 13,18.04962 V 17 h -1 v -1 h 1 v -1 h -1 v -1 h 1 v -1 h -1 v -1 h 1 v -1 h -1 v -1 h 1 V 9 H 12 V 8 h 1 V 7 H 12 V 6 h 1 V 5 H 12 V 4 H 8.9955775 C 8.4457352,4 8,4.4552629 8,4.995457 V 28.004543 C 8,28.554319 8.4547089,29 8.9999602,29 H 24.00004 C 24.552303,29 25,28.555054 25,28.006602 V 11 H 20.997913 C 19.894496,11 19,10.113445 19,8.994081 V 4 h -5 v 0 1 h 1 v 1 h -1 v 1 h 1 v 1 h -1 v 1 h 1 v 1 h -1 v 1 h 1 v 1 h -1 v 1 h 1 v 1 h -1 v 1 h 1 v 1 h -1 v 1 1.049455 c 1.147145,0.230576 2,1.240099 2,2.450545 0,1.390338 -1.119288,2.5 -2.5,2.5 -1.390338,0 -2.5,-1.119288 -2.5,-2.5 0,-1.217911 0.85888,-2.220447 2,-2.45038 z M 26,10 V 28.009205 C 26,29.101788 25.105724,30 24.002578,30 H 8.9974219 C 7.8909254,30 7,29.101288 7,27.99267 V 5.0073299 C 7,3.8983383 7.8966662,3 9.0027601,3 H 20 Z M 20,4.5 V 8.9912152 C 20,9.5483517 20.450651,10 20.996739,10 h 3.703212 z M 13.5,19 C 12.671573,19 12,19.665797 12,20.5 12,21.328427 12.665797,22 13.5,22 14.328427,22 15,21.334203 15,20.5 15,19.671573 14.334203,19 13.5,19 Z"
         id="document-zip"
         inkscape:connector-curvature="0"
         style="fill:#000000;fill-opacity:1" />
    </g>
  </g>
</svg>
