<?xml version="1.0" encoding="UTF-8" standalone="no"?>
<svg
   xmlns:dc="http://purl.org/dc/elements/1.1/"
   xmlns:cc="http://creativecommons.org/ns#"
   xmlns:rdf="http://www.w3.org/1999/02/22-rdf-syntax-ns#"
   xmlns:svg="http://www.w3.org/2000/svg"
   xmlns="http://www.w3.org/2000/svg"
   xmlns:sodipodi="http://sodipodi.sourceforge.net/DTD/sodipodi-0.dtd"
   xmlns:inkscape="http://www.inkscape.org/namespaces/inkscape"
   enable-background="new 0 0 32 32"
   height="63.971603"
   id="Layer_1"
   version="1.1"
   viewBox="0 0 64.099144 63.971603"
   width="64.099144"
   xml:space="preserve"
   sodipodi:docname="cdn.svg"
   inkscape:version="0.92.5 (2060ec1f9f, 2020-04-08)"><metadata
     id="metadata42"><rdf:RDF><cc:Work
         rdf:about=""><dc:format>image/svg+xml</dc:format><dc:type
           rdf:resource="http://purl.org/dc/dcmitype/StillImage" /><dc:title></dc:title></cc:Work></rdf:RDF></metadata><defs
     id="defs40" /><sodipodi:namedview
     pagecolor="#ffffff"
     bordercolor="#666666"
     borderopacity="1"
     objecttolerance="10"
     gridtolerance="10"
     guidetolerance="10"
     inkscape:pageopacity="0"
     inkscape:pageshadow="2"
     inkscape:window-width="2560"
     inkscape:window-height="1391"
     id="namedview38"
     showgrid="false"
     fit-margin-top="0"
     fit-margin-left="0"
     fit-margin-right="0"
     fit-margin-bottom="0"
     inkscape:zoom="7.375"
     inkscape:cx="-8.975968"
     inkscape:cy="48.978605"
     inkscape:window-x="0"
     inkscape:window-y="0"
     inkscape:window-maximized="1"
     inkscape:current-layer="Layer_1" /><g
     id="global"
     transform="matrix(2.1333824,0,0,2.1333824,-2.0821128,-2.1483161)"><g
       id="g10"><path
         d="M 4.229,24.972 C 4.075,24.972 3.921,24.9 3.824,24.765 -0.5,18.774 0.16,10.627 5.393,5.393 c 5.85,-5.848 15.365,-5.848 21.215,0 0.195,0.195 0.195,0.512 0,0.707 -0.195,0.195 -0.512,0.195 -0.707,0 C 20.441,0.643 11.559,0.643 6.1,6.1 1.216,10.986 0.6,18.589 4.634,24.179 4.796,24.404 4.745,24.716 4.522,24.877 4.433,24.941 4.33,24.972 4.229,24.972 Z"
         id="path2"
         inkscape:connector-curvature="0"
         style="fill:#263238" /><path
         d="m 16,30.993 c -3.842,0 -7.683,-1.462 -10.607,-4.386 -0.195,-0.195 -0.195,-0.512 0,-0.707 0.195,-0.195 0.512,-0.195 0.707,0 5.459,5.457 14.342,5.457 19.801,0 4.873,-4.876 5.496,-12.471 1.48,-18.059 -0.161,-0.225 -0.109,-0.537 0.114,-0.698 0.225,-0.161 0.537,-0.11 0.698,0.114 4.303,5.987 3.636,14.125 -1.586,19.35 -2.924,2.924 -6.765,4.385 -10.607,4.386 z"
         id="path4"
         inkscape:connector-curvature="0"
         style="fill:#263238" /><path
         d="m 5.746,29.214 c -0.276,0 -0.5,-0.224 -0.5,-0.5 v -2.46 c 0,-0.276 0.224,-0.5 0.5,-0.5 h 2.461 c 0.276,0 0.5,0.224 0.5,0.5 0,0.276 -0.224,0.5 -0.5,0.5 H 6.246 v 1.96 c 0,0.276 -0.224,0.5 -0.5,0.5 z"
         id="path6"
         inkscape:connector-curvature="0"
         style="fill:#263238" /><path
         d="m 26.254,6.246 h -2.461 c -0.276,0 -0.5,-0.224 -0.5,-0.5 0,-0.276 0.224,-0.5 0.5,-0.5 h 1.961 v -1.96 c 0,-0.276 0.224,-0.5 0.5,-0.5 0.276,0 0.5,0.224 0.5,0.5 v 2.46 c 0,0.276 -0.224,0.5 -0.5,0.5 z"
         id="path8"
         inkscape:connector-curvature="0"
         style="fill:#263238" /></g><g
       id="g34"><g
         id="g14"><path
           d="M 16,27 C 9.935,27 5,22.065 5,16 5,9.935 9.935,5 16,5 22.065,5 27,9.935 27,16 27,22.065 22.065,27 16,27 Z M 16,6 C 10.486,6 6,10.486 6,16 6,21.514 10.486,26 16,26 21.514,26 26,21.514 26,16 26,10.486 21.514,6 16,6 Z"
           id="path12"
           inkscape:connector-curvature="0"
           style="fill:#263238" /></g><path
         d="M 16,27 C 9.935,27 5,22.065 5,16 5,9.935 9.935,5 16,5 22.065,5 27,9.935 27,16 27,22.065 22.065,27 16,27 Z M 16,6 C 10.486,6 6,10.486 6,16 6,21.514 10.486,26 16,26 21.514,26 26,21.514 26,16 26,10.486 21.514,6 16,6 Z"
         id="path16"
         inkscape:connector-curvature="0"
         style="fill:#263238" /><path
         d="m 23.646,23.68 c -0.047,0 -0.094,-0.007 -0.141,-0.021 -4.881,-1.434 -10.131,-1.434 -15.012,0 C 8.229,23.736 7.95,23.587 7.873,23.32 7.795,23.055 7.946,22.778 8.212,22.7 c 5.063,-1.488 10.512,-1.488 15.574,0 0.266,0.078 0.417,0.355 0.339,0.62 -0.062,0.219 -0.262,0.36 -0.479,0.36 z"
         id="path18"
         inkscape:connector-curvature="0"
         style="fill:#263238" /><path
         d="m 16,10.422 c -1.822,0 -3.649,-0.182 -5.433,-0.54 -0.271,-0.055 -0.446,-0.318 -0.392,-0.589 0.055,-0.271 0.324,-0.445 0.589,-0.392 4.203,0.846 8.613,0.652 12.741,-0.561 0.263,-0.079 0.543,0.072 0.62,0.339 0.078,0.265 -0.073,0.542 -0.339,0.62 -2.53,0.745 -5.15,1.123 -7.786,1.123 z"
         id="path20"
         inkscape:connector-curvature="0"
         style="fill:#263238" /><path
         d="m 16.504,26.975 c -0.159,0 -0.316,-0.076 -0.413,-0.218 -0.155,-0.229 -0.097,-0.539 0.131,-0.695 3.354,-2.289 5.356,-6.05 5.356,-10.062 0,-4.012 -2.002,-7.772 -5.356,-10.062 -0.228,-0.156 -0.286,-0.467 -0.131,-0.695 0.156,-0.228 0.467,-0.284 0.695,-0.131 3.627,2.476 5.792,6.546 5.792,10.888 0,4.342 -2.165,8.412 -5.792,10.888 -0.087,0.058 -0.184,0.087 -0.282,0.087 z"
         id="path22"
         inkscape:connector-curvature="0"
         style="fill:#263238" /><path
         d="m 15.496,26.975 c -0.098,0 -0.195,-0.028 -0.282,-0.087 C 11.587,24.412 9.422,20.342 9.422,16 c 0,-3.133 1.129,-6.169 3.178,-8.55 0.181,-0.21 0.497,-0.231 0.705,-0.053 0.209,0.18 0.233,0.496 0.053,0.705 -1.893,2.199 -2.936,5.004 -2.936,7.897 0,4.012 2.002,7.772 5.356,10.062 0.228,0.156 0.286,0.467 0.131,0.695 -0.096,0.142 -0.254,0.219 -0.413,0.219 z"
         id="path24"
         inkscape:connector-curvature="0"
         style="fill:#263238" /><g
         id="g28"><path
           d="m 16,26.447 c -0.276,0 -0.5,-0.224 -0.5,-0.5 V 6.053 c 0,-0.276 0.224,-0.5 0.5,-0.5 0.276,0 0.5,0.224 0.5,0.5 v 19.895 c 0,0.276 -0.224,0.499 -0.5,0.499 z"
           id="path26"
           inkscape:connector-curvature="0"
           style="fill:#263238" /></g><g
         id="g32"><path
           d="M 25.947,16.5 H 7.553 c -0.276,0 -0.5,-0.224 -0.5,-0.5 0,-0.276 0.224,-0.5 0.5,-0.5 h 18.395 c 0.276,0 0.5,0.224 0.5,0.5 0,0.276 -0.224,0.5 -0.501,0.5 z"
           id="path30"
           inkscape:connector-curvature="0"
           style="fill:#263238" /></g></g></g></svg>