<?xml version="1.0" encoding="UTF-8" standalone="no"?>
<svg
   xmlns:dc="http://purl.org/dc/elements/1.1/"
   xmlns:cc="http://creativecommons.org/ns#"
   xmlns:rdf="http://www.w3.org/1999/02/22-rdf-syntax-ns#"
   xmlns:svg="http://www.w3.org/2000/svg"
   xmlns="http://www.w3.org/2000/svg"
   xmlns:sodipodi="http://sodipodi.sourceforge.net/DTD/sodipodi-0.dtd"
   xmlns:inkscape="http://www.inkscape.org/namespaces/inkscape"
   role="img"
   version="1.1"
   viewBox="0 0 24 24"
   id="svg6"
   sodipodi:docname="gravatar.svg"
   inkscape:version="0.92.5 (2060ec1f9f, 2020-04-08)">
  <defs
     id="defs10" />
  <sodipodi:namedview
     pagecolor="#ffffff"
     bordercolor="#666666"
     borderopacity="1"
     objecttolerance="10"
     gridtolerance="10"
     guidetolerance="10"
     inkscape:pageopacity="0"
     inkscape:pageshadow="2"
     inkscape:window-width="2560"
     inkscape:window-height="1391"
     id="namedview8"
     showgrid="false"
     inkscape:zoom="9.8333333"
     inkscape:cx="-5.7966102"
     inkscape:cy="11.59322"
     inkscape:window-x="0"
     inkscape:window-y="0"
     inkscape:window-maximized="1"
     inkscape:current-layer="svg6" />
  <metadata
     id="metadata2">
    <rdf:RDF>
      <cc:Work
         rdf:about="">
        <dc:format>image/svg+xml</dc:format>
        <dc:type
           rdf:resource="http://purl.org/dc/dcmitype/StillImage" />
        <dc:title></dc:title>
      </cc:Work>
    </rdf:RDF>
  </metadata>
  <path
     d="m12 0.99609c-0.7881 0-1.4043 0.6162-1.4043 1.4043v8.4004c0 0.78528 0.61525 1.4004 1.4043 1.4004s1.4043-0.61511 1.4043-1.4004v-5.5898a0.99591 0.99591 0 0 1 1.3281-0.93945c3.1834 1.1276 5.4629 4.1672 5.4629 7.7266 0 4.5137-3.6827 8.1953-8.1953 8.1953-4.5123 0-8.1953-3.6797-8.1953-8.1934 0-2.2575 0.91759-4.3152 2.4004-5.7969h-0.00195c0.55802-0.55802 0.55802-1.4264 0-1.9844-0.55802-0.55802-1.4264-0.55802-1.9844 0-1.99 1.9943-3.2227 4.7372-3.2227 7.7812 0 6.0887 4.9152 11.004 11.004 11.004 6.0887 0 11.004-4.9152 11.004-11.004 0-6.0887-4.9152-11.004-11.004-11.004z"
     id="path4"
     style="fill:#000000;fill-opacity:1;stroke:#ffffff;stroke-opacity:1" />
</svg>
